<?xml version="1.0" encoding="utf-8"?>
<!-- Generator: Adobe Illustrator 24.0.0, SVG Export Plug-In . SVG Version: 6.00 Build 0)  -->
<svg version="1.1" id="Capa_1" xmlns="http://www.w3.org/2000/svg" xmlns:xlink="http://www.w3.org/1999/xlink" x="0px" y="0px"
	 viewBox="0 0 288.7 39.6" style="enable-background:new 0 0 288.7 39.6;" xml:space="preserve">
<style type="text/css">
	.st0{fill:#36499B;}
	.st1{fill:#FFE600;}
	.st2{fill:#FFD500;}
	.st3{fill:#C10230;}
	.st4{fill:#C3162C;}
</style>
<g>
	<g>
		<rect x="18.5" y="4.4" class="st0" width="37.5" height="25"/>
		<polygon class="st1" points="44.1,12.4 44.4,11.4 44.7,12.4 45.7,12.4 44.9,13 45.2,13.9 44.4,13.3 43.6,13.9 43.9,13 43.1,12.4 
					"/>
		<polygon class="st1" points="37,8.3 37.3,7.4 37.6,8.3 38.6,8.3 37.8,8.9 38.1,9.8 37.3,9.2 36.5,9.8 36.8,8.9 36,8.3 		"/>
		<polygon class="st1" points="27.8,16.5 28.8,16.5 29.1,15.5 29.4,16.5 30.4,16.5 29.6,17.1 29.9,18 29.1,17.4 28.3,18 28.6,17.1 
					"/>
		<polygon class="st1" points="31,22.1 30.2,21.5 29.4,22.1 29.7,21.2 28.9,20.6 29.9,20.6 30.2,19.6 30.5,20.6 31.5,20.6 
			30.7,21.2 		"/>
		<polygon class="st1" points="30.7,13 31,13.9 30.2,13.3 29.4,13.9 29.7,13 28.9,12.4 29.9,12.4 30.2,11.5 30.5,12.4 31.5,12.4 		
			"/>
		<polygon class="st1" points="32.9,9.4 33.2,8.5 33.5,9.4 34.5,9.4 33.7,10 34,10.9 33.2,10.3 32.4,10.9 32.7,10 31.9,9.4 		"/>
		<polygon class="st1" points="34,25.1 33.2,24.5 32.4,25.1 32.7,24.2 31.9,23.6 32.9,23.6 33.2,22.6 33.5,23.6 34.5,23.6 
			33.7,24.2 		"/>
		<polygon class="st1" points="38.1,26.2 37.3,25.6 36.5,26.2 36.8,25.3 36,24.7 37,24.7 37.3,23.7 37.6,24.7 38.6,24.7 37.8,25.3 
					"/>
		<polygon class="st1" points="42.2,25.1 41.4,24.5 40.6,25.1 40.9,24.2 40.1,23.6 41.1,23.6 41.4,22.6 41.7,23.6 42.7,23.6 
			41.9,24.2 		"/>
		<polygon class="st1" points="41.9,10 42.2,10.9 41.4,10.3 40.6,10.9 40.9,10 40.1,9.4 41.1,9.4 41.4,8.5 41.7,9.4 42.7,9.4 		"/>
		<polygon class="st1" points="45.2,22.1 44.4,21.5 43.6,22.1 43.9,21.2 43.1,20.6 44.1,20.6 44.4,19.6 44.7,20.6 45.7,20.6 
			44.9,21.2 		"/>
		<polygon class="st1" points="46.2,18 45.4,17.4 44.7,18 45,17.1 44.2,16.5 45.1,16.5 45.4,15.5 45.8,16.5 46.7,16.5 45.9,17.1 		
			"/>
		<path d="M20.6,32H21v1.8c0,0.3,0,0.6-0.1,0.7c-0.1,0.2-0.2,0.3-0.4,0.5c-0.2,0.1-0.4,0.2-0.7,0.2c-0.3,0-0.5-0.1-0.7-0.2
			c-0.2-0.1-0.3-0.2-0.4-0.4c-0.1-0.2-0.1-0.5-0.1-0.8V32h0.4v1.8c0,0.3,0,0.5,0.1,0.6c0.1,0.1,0.1,0.2,0.3,0.3
			c0.1,0.1,0.3,0.1,0.4,0.1c0.3,0,0.5-0.1,0.6-0.2c0.1-0.1,0.2-0.4,0.2-0.8V32z"/>
		<polygon points="21.8,35.1 21.8,32 22.2,32 23.8,34.5 23.8,32 24.2,32 24.2,35.1 23.8,35.1 22.2,32.7 22.2,35.1 		"/>
		<rect x="25.1" y="32" width="0.4" height="3.1"/>
		<path d="M26.2,33.6c0-0.5,0.1-0.9,0.4-1.2c0.3-0.3,0.6-0.4,1.1-0.4c0.3,0,0.5,0.1,0.8,0.2c0.2,0.1,0.4,0.3,0.5,0.6
			c0.1,0.2,0.2,0.5,0.2,0.8c0,0.3-0.1,0.6-0.2,0.8c-0.1,0.2-0.3,0.4-0.5,0.6c-0.2,0.1-0.5,0.2-0.8,0.2c-0.3,0-0.6-0.1-0.8-0.2
			c-0.2-0.1-0.4-0.3-0.5-0.6C26.3,34.2,26.2,33.9,26.2,33.6 M26.6,33.6c0,0.4,0.1,0.7,0.3,0.9c0.2,0.2,0.5,0.3,0.8,0.3
			c0.3,0,0.6-0.1,0.8-0.3c0.2-0.2,0.3-0.5,0.3-0.9c0-0.3,0-0.5-0.1-0.7c-0.1-0.2-0.2-0.3-0.4-0.4c-0.2-0.1-0.3-0.2-0.6-0.2
			c-0.3,0-0.5,0.1-0.8,0.3C26.7,32.8,26.6,33.2,26.6,33.6 M27.4,31.8l0.3-0.6h0.5l-0.5,0.6H27.4z"/>
		<polygon points="29.8,35.1 29.8,32 30.2,32 31.9,34.5 31.9,32 32.3,32 32.3,35.1 31.8,35.1 30.2,32.7 30.2,35.1 		"/>
		<polygon points="34.4,35.1 34.4,32 36.6,32 36.6,32.4 34.8,32.4 34.8,33.4 36.5,33.4 36.5,33.7 34.8,33.7 34.8,34.8 36.7,34.8 
			36.7,35.1 		"/>
		<path d="M39.4,32h0.4v1.8c0,0.3,0,0.6-0.1,0.7c-0.1,0.2-0.2,0.3-0.4,0.5c-0.2,0.1-0.4,0.2-0.7,0.2c-0.3,0-0.5-0.1-0.7-0.2
			c-0.2-0.1-0.3-0.2-0.4-0.4c-0.1-0.2-0.1-0.5-0.1-0.8V32h0.4v1.8c0,0.3,0,0.5,0.1,0.6c0,0.1,0.1,0.2,0.3,0.3
			c0.1,0.1,0.3,0.1,0.4,0.1c0.3,0,0.5-0.1,0.6-0.2c0.1-0.1,0.2-0.4,0.2-0.8V32z"/>
		<path d="M40.6,35.1V32H42c0.3,0,0.5,0,0.6,0.1c0.1,0.1,0.3,0.2,0.3,0.3c0.1,0.1,0.1,0.3,0.1,0.5c0,0.2-0.1,0.4-0.2,0.6
			c-0.1,0.2-0.4,0.2-0.7,0.3c0.1,0.1,0.2,0.1,0.2,0.2c0.1,0.1,0.2,0.2,0.3,0.4l0.5,0.8h-0.5l-0.4-0.6c-0.1-0.2-0.2-0.3-0.3-0.4
			c-0.1-0.1-0.1-0.2-0.2-0.2c-0.1,0-0.1-0.1-0.2-0.1c0,0-0.1,0-0.2,0h-0.5v1.4H40.6z M41.1,33.4h0.9c0.2,0,0.3,0,0.4-0.1
			c0.1,0,0.2-0.1,0.2-0.2c0.1-0.1,0.1-0.2,0.1-0.3c0-0.1-0.1-0.3-0.2-0.4c-0.1-0.1-0.3-0.1-0.5-0.1h-1V33.4z"/>
		<path d="M43.8,33.6c0-0.5,0.1-0.9,0.4-1.2c0.3-0.3,0.6-0.4,1.1-0.4c0.3,0,0.5,0.1,0.8,0.2c0.2,0.1,0.4,0.3,0.5,0.6
			c0.1,0.2,0.2,0.5,0.2,0.8c0,0.3-0.1,0.6-0.2,0.8c-0.1,0.2-0.3,0.4-0.5,0.6c-0.2,0.1-0.5,0.2-0.8,0.2c-0.3,0-0.6-0.1-0.8-0.2
			c-0.2-0.1-0.4-0.3-0.5-0.6C43.8,34.2,43.8,33.9,43.8,33.6 M44.2,33.6c0,0.4,0.1,0.7,0.3,0.9c0.2,0.2,0.5,0.3,0.8,0.3
			c0.3,0,0.6-0.1,0.8-0.3c0.2-0.2,0.3-0.5,0.3-0.9c0-0.3,0-0.5-0.1-0.7c-0.1-0.2-0.2-0.3-0.4-0.4c-0.2-0.1-0.4-0.2-0.6-0.2
			c-0.3,0-0.5,0.1-0.8,0.3C44.3,32.8,44.2,33.2,44.2,33.6"/>
		<path d="M47.4,35.1V32h1.2c0.2,0,0.4,0,0.5,0c0.2,0,0.3,0.1,0.4,0.1c0.1,0.1,0.2,0.2,0.2,0.3c0.1,0.1,0.1,0.3,0.1,0.4
			c0,0.3-0.1,0.5-0.3,0.7c-0.2,0.2-0.5,0.3-0.9,0.3h-0.8v1.3H47.4z M47.8,33.5h0.8c0.3,0,0.5-0.1,0.6-0.1c0.1-0.1,0.2-0.2,0.2-0.4
			c0-0.1,0-0.2-0.1-0.3c-0.1-0.1-0.2-0.2-0.3-0.2c-0.1,0-0.2,0-0.4,0h-0.8V33.5z"/>
		<polygon points="50.4,35.1 50.4,32 52.6,32 52.6,32.4 50.8,32.4 50.8,33.4 52.5,33.4 52.5,33.7 50.8,33.7 50.8,34.8 52.7,34.8 
			52.7,35.1 		"/>
		<path d="M53,35.1l1.2-3.1h0.4l1.3,3.1h-0.5l-0.4-0.9h-1.3l-0.3,0.9H53z M53.9,33.9H55L54.7,33c-0.1-0.3-0.2-0.5-0.2-0.6
			c0,0.2-0.1,0.4-0.2,0.6L53.9,33.9z"/>
	</g>
	<g>
		<path class="st2" d="M200.4,22.6c-0.7,2.1-2.5,3.5-4.7,3.5c-3,0-6-2.3-6-5.5c0-3.3,3-5.7,6.1-5.7c2.9,0,4.2,1.9,4.2,2.9
			c0,1.1-0.8,1.9-1.9,1.9c-1,0-1.8-0.8-1.8-1.9c0-0.4,0.2-0.9,0.5-1c0.2-0.1,0.3-0.3,0.3-0.6c0-0.5-1-0.6-1.4-0.6
			c-1.2,0-2,0.3-2,2.9v3.5c0,2.8,0.3,3.5,2.1,3.5c2.1,0,3.2-1.2,4-3.1L200.4,22.6z"/>
		<path class="st3" d="M208.7,19.7c-2.4-0.1-6.7,0.5-6.7,3.7c0,1.7,1.2,2.6,2.8,2.6c1.5,0,2.9-0.7,3.9-1.9c0.2,1.2,0.9,1.9,2.1,1.9
			c1.1,0,1.9-0.6,2.5-1.4l-0.3-0.4c-0.2,0.2-0.6,0.6-0.9,0.6c-0.3,0-0.6-0.2-0.6-0.5v-7.1c0-0.8-0.2-1.3-1-1.6
			c-1-0.5-2.3-0.7-3.4-0.7c-1.6,0-4.3,0.7-4.3,2.8c0,0.9,0.6,1.3,1.4,1.3c0.6,0,1.3-0.5,1.3-1.2c0-0.5-0.2-1.1-0.4-1.3
			c-0.4-0.5,0.9-1,1.9-1c0.5,0,1.8,0.3,1.8,1V19.7z M209.6,9.8c0.3-0.2,0.8-0.7,0.8-1c0-0.5-0.5-1-1.1-1c-0.6,0-1.2,0.7-1.7,1.2
			l-3.4,3.5h1.3L209.6,9.8z M208.7,21.7c0,0.5,0,1-0.2,1.4c-0.3,0.9-1,1.6-2,1.6c-1.3,0-1.7-0.9-1.7-2.1c0-2.2,2.2-2.4,3.9-2.4V21.7
			z"/>
		<path class="st3" d="M218.6,17.5L218.6,17.5c0.7-1.6,2-2.6,3.8-2.6c1.5,0,2.6,0.8,3.1,2.2c0.8-1.3,1.9-2.2,3.5-2.2
			c3.5,0,3.2,2.2,3.2,4.9V25h1.7v0.7h-6V25h1.4v-7.2c0-0.8,0.1-2-1.1-2c-2,0-2.8,2.3-2.8,4V25h1.5v0.7h-5.7V25h1.4v-6.4
			c0-1.2,0.3-2.7-1.3-2.7c-1.3,0-2.7,2-2.7,4V25h1.5v0.7h-6.1V25h1.7v-9.3H214V15c1.4,0.1,3-0.1,4.7-0.1V17.5z"/>
		<path class="st3" d="M241.9,19.7c-2.4-0.1-6.7,0.5-6.7,3.7c0,1.7,1.2,2.6,2.8,2.6c1.5,0,3-0.7,3.9-1.9c0.2,1.2,0.9,1.9,2.1,1.9
			c1.1,0,1.8-0.6,2.5-1.4l-0.3-0.4c-0.2,0.2-0.6,0.6-0.9,0.6c-0.3,0-0.6-0.2-0.6-0.5v-7.1c0-0.8-0.2-1.3-1-1.6
			c-1-0.5-2.3-0.7-3.4-0.7c-1.6,0-4.3,0.7-4.3,2.8c0,0.9,0.6,1.3,1.4,1.3c0.6,0,1.3-0.5,1.3-1.2c0-0.5-0.2-1.1-0.4-1.3
			c-0.4-0.5,0.9-1,1.9-1c0.5,0,1.8,0.3,1.8,1V19.7z M241.9,21.7c0,0.5,0,1-0.2,1.4c-0.3,0.9-1,1.6-2,1.6c-1.3,0-1.7-0.9-1.7-2.1
			c0-2.2,2.2-2.4,3.9-2.4V21.7z"/>
		<path class="st3" d="M252.2,17.9c0.9-1.5,1.8-3,3.8-3c1,0,2.1,0.5,2.1,1.7c0,1-0.7,1.5-1.7,1.5c-0.6,0-1.3-0.6-1.3-1.2
			c0-0.1,0-0.3,0.1-0.4c0.1-0.4,0.1-0.6-0.2-0.6c-0.5,0-0.8,0.3-1.1,0.6c-1,1-1.7,2.5-1.7,6V25h2.4v0.7h-6.9V25h1.6v-9.3h-1.8V15
			c1.4,0.1,3-0.1,4.7-0.1V17.9z"/>
		<path class="st3" d="M265.6,19.7c-2.4-0.1-6.7,0.5-6.7,3.7c0,1.7,1.2,2.6,2.8,2.6c1.5,0,3-0.7,3.9-1.9c0.2,1.2,0.9,1.9,2.1,1.9
			c1.1,0,1.9-0.6,2.5-1.4l-0.3-0.4c-0.2,0.2-0.6,0.6-0.9,0.6c-0.3,0-0.6-0.2-0.6-0.5v-7.1c0-0.8-0.2-1.3-1-1.6
			c-1-0.5-2.3-0.7-3.4-0.7c-1.6,0-4.3,0.7-4.3,2.8c0,0.9,0.6,1.3,1.4,1.3c0.6,0,1.3-0.5,1.3-1.2c0-0.5-0.2-1.1-0.4-1.3
			c-0.4-0.5,0.9-1,1.9-1c0.5,0,1.8,0.3,1.8,1V19.7z M265.6,21.7c0,0.5,0,1-0.2,1.4c-0.3,0.9-1,1.6-2,1.6c-1.3,0-1.7-0.9-1.7-2.1
			c0-2.2,2.2-2.4,3.9-2.4V21.7z"/>
		<path class="st3" d="M199.6,9.8l-0.1-0.1c-1.3-0.5-2.7-0.8-4.2-0.8c-6.6,0-11.7,5.1-11.7,11.6c0,6.3,5.1,11.4,11.5,11.4
			c1.5,0,3-0.3,4.4-0.9l0.1,0l0-0.2l0-2.9l0-0.4l-0.4,0.2c-1.4,0.8-2.9,1.3-4.3,1.3c-4.5,0-8.2-3.8-8.2-8.5c0-4.7,3.7-8.6,8.3-8.6
			c1.6,0,2.9,0.4,4.2,1.1l0.3,0.2L199.6,9.8z"/>
		<g>
			<path d="M214.8,30.4c0,0.5,0.1,0.8,0.2,1c0.1,0.2,0.4,0.3,0.7,0.3c0.2,0,0.4-0.1,0.5-0.2s0.2-0.3,0.2-0.6v-0.4h-0.5v-0.1h1.7v0.1
				h-0.4c0,0.4-0.1,0.7-0.4,1c-0.3,0.2-0.6,0.4-1,0.4c-0.5,0-0.9-0.2-1.2-0.5c-0.3-0.4-0.5-0.8-0.5-1.4s0.2-1,0.5-1.4
				s0.7-0.5,1.2-0.5c0.2,0,0.4,0,0.5,0.1c0.1,0,0.3,0.1,0.4,0.2l0.2-0.2h0.1v1.1h-0.1c-0.1-0.3-0.2-0.6-0.4-0.7
				c-0.2-0.2-0.4-0.2-0.7-0.2c-0.3,0-0.6,0.1-0.7,0.3c-0.1,0.2-0.2,0.5-0.2,1V30.4z"/>
			<path d="M217.8,31.7v-0.1h0.4v-1.9h-0.4v-0.1h0.4c0.1,0,0.2,0,0.3,0s0.2,0,0.3,0l0,0.5h0c0.1-0.2,0.2-0.3,0.3-0.4
				c0.1-0.1,0.3-0.1,0.4-0.1c0.1,0,0.2,0,0.3,0.1c0.1,0.1,0.1,0.1,0.1,0.3c0,0.1,0,0.2-0.1,0.2c-0.1,0.1-0.1,0.1-0.2,0.1
				c-0.1,0-0.2,0-0.2-0.1s-0.1-0.1-0.1-0.2v0c0,0,0-0.1,0-0.1s0,0,0,0c-0.1,0-0.2,0.1-0.4,0.2c-0.1,0.2-0.2,0.3-0.2,0.5v1h0.5v0.1
				H217.8z"/>
			<path d="M221.7,31.5L221.7,31.5c-0.1,0.1-0.2,0.2-0.4,0.3s-0.3,0.1-0.4,0.1c-0.2,0-0.3,0-0.4-0.1s-0.1-0.2-0.1-0.4
				c0-0.2,0.1-0.4,0.3-0.5s0.5-0.2,0.8-0.2h0.2v-0.3c0-0.2,0-0.4-0.1-0.4s-0.1-0.1-0.3-0.1c-0.1,0-0.2,0-0.3,0s-0.1,0.1-0.1,0.1
				c0,0,0,0,0,0.1s0,0.1,0,0.2c0,0.1,0,0.1-0.1,0.2s-0.1,0.1-0.2,0.1c-0.1,0-0.1,0-0.2-0.1s-0.1-0.1-0.1-0.2c0-0.1,0.1-0.3,0.2-0.4
				c0.2-0.1,0.4-0.2,0.6-0.2c0.2,0,0.3,0,0.4,0s0.2,0.1,0.3,0.1c0.1,0,0.1,0.1,0.1,0.1s0,0.2,0,0.4v1.2c0,0,0,0.1,0,0.1s0.1,0,0.1,0
				c0,0,0.1,0,0.1,0s0.1-0.1,0.1-0.1l0.1,0.1c-0.1,0.1-0.1,0.2-0.2,0.2s-0.2,0.1-0.3,0.1c-0.1,0-0.2,0-0.3-0.1
				S221.7,31.6,221.7,31.5z M221.6,30.6c-0.3,0-0.5,0-0.6,0.1s-0.2,0.2-0.2,0.4c0,0.1,0,0.2,0.1,0.3s0.2,0.1,0.3,0.1
				c0.1,0,0.2,0,0.3-0.1c0.1-0.1,0.1-0.2,0.1-0.4L221.6,30.6z"/>
			<path d="M224.2,31.7h-1.3v-0.1h0.4v-1.9h-0.4v-0.1h0.4c0.1,0,0.2,0,0.3,0s0.2,0,0.3,0V30h0.1c0.1-0.2,0.2-0.3,0.3-0.4
				c0.1-0.1,0.3-0.1,0.4-0.1c0.2,0,0.4,0.1,0.5,0.2c0.1,0.1,0.2,0.3,0.2,0.5v0.1v1.3h0.3v0.1h-1.3v-0.1h0.3v-1.5
				c0-0.1,0-0.2-0.1-0.3s-0.1-0.1-0.2-0.1c-0.2,0-0.3,0.1-0.4,0.3c-0.1,0.2-0.2,0.4-0.2,0.6v1h0.3V31.7z"/>
			<path d="M227.4,31.5L227.4,31.5c-0.1,0.1-0.2,0.2-0.4,0.3s-0.3,0.1-0.4,0.1c-0.2,0-0.3,0-0.4-0.1s-0.1-0.2-0.1-0.4
				c0-0.2,0.1-0.4,0.3-0.5s0.5-0.2,0.8-0.2h0.2v-0.3c0-0.2,0-0.4-0.1-0.4s-0.1-0.1-0.3-0.1c-0.1,0-0.2,0-0.3,0s-0.1,0.1-0.1,0.1
				c0,0,0,0,0,0.1s0,0.1,0,0.2c0,0.1,0,0.1-0.1,0.2s-0.1,0.1-0.2,0.1c-0.1,0-0.1,0-0.2-0.1s-0.1-0.1-0.1-0.2c0-0.1,0.1-0.3,0.2-0.4
				c0.2-0.1,0.4-0.2,0.6-0.2c0.2,0,0.3,0,0.4,0s0.2,0.1,0.3,0.1c0.1,0,0.1,0.1,0.1,0.1s0,0.2,0,0.4v1.2c0,0,0,0.1,0,0.1s0.1,0,0.1,0
				c0,0,0.1,0,0.1,0s0.1-0.1,0.1-0.1l0.1,0.1c-0.1,0.1-0.1,0.2-0.2,0.2s-0.2,0.1-0.3,0.1c-0.1,0-0.2,0-0.3-0.1
				S227.4,31.6,227.4,31.5z M227.4,30.6c-0.3,0-0.5,0-0.6,0.1c-0.1,0.1-0.2,0.2-0.2,0.4c0,0.1,0,0.2,0.1,0.3s0.2,0.1,0.3,0.1
				c0.1,0,0.2,0,0.3-0.1c0.1-0.1,0.1-0.2,0.1-0.4L227.4,30.6z"/>
			<path d="M231,31.6h0.4v0.1H231c-0.1,0-0.2,0-0.3,0s-0.2,0-0.3,0v-0.3h-0.1c-0.1,0.1-0.2,0.2-0.3,0.2s-0.2,0.1-0.4,0.1
				c-0.3,0-0.5-0.1-0.7-0.3c-0.2-0.2-0.3-0.5-0.3-0.8c0-0.3,0.1-0.6,0.3-0.8c0.2-0.2,0.4-0.3,0.7-0.3c0.1,0,0.2,0,0.3,0.1
				c0.1,0.1,0.2,0.1,0.3,0.3h0.1v-1.7h-0.4V28h0.3c0.1,0,0.2,0,0.3,0s0.2,0,0.3,0V31.6z M230.4,31v-0.6c0-0.2-0.1-0.3-0.2-0.5
				s-0.3-0.2-0.4-0.2c-0.2,0-0.3,0-0.3,0.1s-0.1,0.3-0.1,0.5v0.8c0,0.2,0,0.4,0.1,0.5s0.2,0.1,0.3,0.1c0.2,0,0.3-0.1,0.5-0.2
				C230.3,31.3,230.4,31.2,230.4,31L230.4,31z"/>
			<path d="M233.1,31.5L233.1,31.5c-0.1,0.1-0.2,0.2-0.4,0.3s-0.3,0.1-0.4,0.1c-0.2,0-0.3,0-0.4-0.1s-0.1-0.2-0.1-0.4
				c0-0.2,0.1-0.4,0.3-0.5c0.2-0.1,0.5-0.2,0.8-0.2h0.2v-0.3c0-0.2,0-0.4-0.1-0.4s-0.1-0.1-0.3-0.1c-0.1,0-0.2,0-0.3,0
				s-0.1,0.1-0.1,0.1c0,0,0,0,0,0.1s0,0.1,0,0.2c0,0.1,0,0.1-0.1,0.2s-0.1,0.1-0.2,0.1c-0.1,0-0.1,0-0.2-0.1s-0.1-0.1-0.1-0.2
				c0-0.1,0.1-0.3,0.2-0.4c0.2-0.1,0.4-0.2,0.6-0.2c0.2,0,0.3,0,0.4,0s0.2,0.1,0.3,0.1c0.1,0,0.1,0.1,0.1,0.1s0,0.2,0,0.4v1.2
				c0,0,0,0.1,0,0.1s0.1,0,0.1,0c0,0,0.1,0,0.1,0s0.1-0.1,0.1-0.1l0.1,0.1c-0.1,0.1-0.1,0.2-0.2,0.2c-0.1,0.1-0.2,0.1-0.3,0.1
				c-0.1,0-0.2,0-0.3-0.1S233.1,31.6,233.1,31.5z M233.1,30.6c-0.3,0-0.5,0-0.6,0.1s-0.2,0.2-0.2,0.4c0,0.1,0,0.2,0.1,0.3
				s0.2,0.1,0.3,0.1c0.1,0,0.2,0,0.3-0.1c0.1-0.1,0.1-0.2,0.1-0.4L233.1,30.6z"/>
		</g>
	</g>
	<g>
		<path d="M109.8,31c0.2,0,0.4-0.1,0.5-0.3c0.1-0.2,0.2-0.4,0.2-0.9c0-0.8-0.5-0.9-0.7-0.9c-0.4,0-0.5,0.3-0.5,1.1
			C109.4,30.7,109.4,31,109.8,31 M111.1,30.9h0.4V31h-0.3c-0.1,0-0.3,0-0.6,0v-0.5h0c-0.1,0.1-0.3,0.5-0.7,0.5c-0.5,0-1-0.6-1-1.1
			c0-0.6,0.5-1.2,1.1-1.2c0.4,0,0.6,0.3,0.6,0.4h0v-1.7H110v-0.1h0.5c0,0,0.3,0,0.6,0V30.9z"/>
		<path d="M113.2,29.7c0-0.1,0-0.2,0-0.3c0-0.3-0.1-0.4-0.4-0.4c-0.3,0-0.4,0.2-0.4,0.4v0.3H113.2z M112.4,29.8c0,0.8,0,1.2,0.5,1.2
			c0.4,0,0.7-0.3,0.8-0.7h0.1c-0.1,0.7-0.7,0.8-0.9,0.8c-0.6,0-1.1-0.5-1.1-1.2c0-0.7,0.5-1.1,1.1-1.1c0.3,0,0.6,0.1,0.8,0.4
			c0.2,0.2,0.2,0.4,0.2,0.6H112.4z"/>
		<path d="M118.5,28.4h-0.1c-0.1-0.3-0.1-0.5-0.3-0.7c-0.1-0.1-0.3-0.3-0.7-0.3c-0.7,0-0.8,0.7-0.8,1.8c0,1.1,0.1,1.3,0.2,1.5
			c0.2,0.2,0.5,0.3,0.6,0.3c0.1,0,0.3,0,0.5-0.2c0.2-0.1,0.4-0.4,0.6-0.9h0.1l0,1.1h-0.1c-0.1-0.2-0.1-0.2-0.2-0.3
			c-0.1,0.1-0.5,0.4-0.9,0.4c-0.7,0-1.6-0.8-1.6-1.9c0-1.1,0.8-2,1.6-2c0.1,0,0.5,0,0.9,0.3c0.1-0.1,0.1-0.2,0.2-0.3h0.1V28.4z"/>
		<path d="M119.8,29.1c-0.1,0.1-0.1,0.3-0.1,0.8c0,0.5,0,0.7,0.1,0.8c0.1,0.1,0.2,0.2,0.4,0.2c0.2,0,0.3-0.1,0.4-0.2
			c0.1-0.2,0.1-0.3,0.1-0.8c0-0.5,0-0.7-0.1-0.8c-0.1-0.1-0.2-0.2-0.4-0.2C120.1,28.9,119.9,29,119.8,29.1 M121.4,29.9
			c0,0.7-0.6,1.2-1.2,1.2c-0.6,0-1.1-0.5-1.1-1.2c0-0.6,0.5-1.1,1.2-1.1C120.9,28.8,121.4,29.3,121.4,29.9"/>
		<path d="M122.2,29h-0.4v-0.1h0.2c0.4,0,0.6,0,0.7,0v0.5h0c0.1-0.2,0.3-0.5,0.8-0.5c0.6,0,0.7,0.5,0.7,0.6h0
			c0.1-0.1,0.3-0.6,0.8-0.6c0.3,0,0.5,0.1,0.6,0.3c0.1,0.1,0.1,0.3,0.1,0.6v1.1h0.4V31h-1.3v-0.1h0.4v-1.4c0-0.4,0-0.6-0.2-0.6
			c-0.2,0-0.5,0.2-0.6,0.5c-0.1,0.3-0.1,0.5-0.1,0.7v0.7h0.4V31h-1.3v-0.1h0.4v-1.1c0-0.6,0-0.6,0-0.7c-0.1-0.2-0.2-0.2-0.2-0.2
			c-0.3,0-0.6,0.3-0.6,0.6c0,0.2,0,0.4,0,0.6v0.7h0.4V31h-1.3v-0.1h0.4V29z"/>
		<path d="M128,29.7c0-0.1,0-0.2,0-0.3c0-0.3-0.1-0.4-0.4-0.4c-0.3,0-0.4,0.2-0.4,0.4v0.3H128z M127.1,29.8c0,0.8,0,1.2,0.5,1.2
			c0.4,0,0.7-0.3,0.8-0.7h0.1c-0.1,0.7-0.7,0.8-0.9,0.8c-0.6,0-1.1-0.5-1.1-1.2c0-0.7,0.5-1.1,1.1-1.1c0.3,0,0.6,0.1,0.8,0.4
			c0.2,0.2,0.2,0.4,0.2,0.6H127.1z"/>
		<path d="M129.3,29h-0.5v-0.1h0.5c0.3,0,0.4,0,0.5,0v0.5h0c0.1-0.4,0.3-0.5,0.6-0.5c0.2,0,0.4,0.2,0.4,0.3c0,0.2-0.1,0.3-0.3,0.3
			c-0.1,0-0.2-0.1-0.2-0.2l0-0.1c0,0,0-0.1-0.1-0.1c0,0-0.1,0.1-0.2,0.2c-0.1,0.2-0.2,0.4-0.2,0.8v0.8h0.5V31h-1.5v-0.1h0.5V29z"/>
		<path d="M133.2,30.3c-0.1,0.6-0.5,0.8-0.9,0.8c-0.7,0-1.1-0.6-1.1-1.1c0-0.6,0.5-1.2,1.2-1.2c0.5,0,0.8,0.3,0.8,0.6
			c0,0.1-0.1,0.3-0.3,0.3c-0.1,0-0.3-0.1-0.3-0.3c0-0.1,0-0.1,0.1-0.2c0,0,0.1-0.1,0.1-0.1c0,0,0,0,0-0.1c0-0.1-0.1-0.2-0.4-0.2
			c-0.5,0-0.6,0.3-0.6,0.8c0,0.8,0,1.2,0.5,1.2c0.6,0,0.7-0.5,0.8-0.7H133.2z"/>
		<path d="M134.5,27.8c0,0.2-0.1,0.3-0.3,0.3s-0.3-0.1-0.3-0.3c0-0.2,0.1-0.3,0.3-0.3C134.3,27.5,134.5,27.6,134.5,27.8 M134.4,30.9
			h0.4V31h-1.3v-0.1h0.4V29h-0.4v-0.1h0.4c0.1,0,0.4,0,0.5,0V30.9z"/>
		<path d="M135.9,29.1c-0.1,0.1-0.1,0.3-0.1,0.8c0,0.5,0,0.7,0.1,0.8c0.1,0.1,0.2,0.2,0.4,0.2c0.2,0,0.3-0.1,0.4-0.2
			c0.1-0.2,0.1-0.3,0.1-0.8c0-0.5,0-0.7-0.1-0.8c-0.1-0.1-0.2-0.2-0.4-0.2C136.2,28.9,136,29,135.9,29.1 M137.5,29.9
			c0,0.7-0.6,1.2-1.2,1.2c-0.6,0-1.1-0.5-1.1-1.2c0-0.6,0.5-1.1,1.2-1.1C136.9,28.8,137.5,29.3,137.5,29.9"/>
		<path d="M140.4,31c0.2,0,0.4-0.1,0.6-0.3c0.1-0.2,0.2-0.4,0.2-0.9c0-0.8-0.5-0.9-0.7-0.9c-0.4,0-0.5,0.3-0.5,1.1
			C140,30.7,140,31,140.4,31 M141.6,30.9h0.4V31h-0.3c-0.1,0-0.3,0-0.6,0v-0.5h0c-0.1,0.1-0.3,0.5-0.7,0.5c-0.5,0-1-0.6-1-1.1
			c0-0.6,0.5-1.2,1.1-1.2c0.4,0,0.6,0.3,0.6,0.4h0v-1.7h-0.5v-0.1h0.5c0,0,0.3,0,0.6,0V30.9z"/>
		<path d="M143.8,29.7c0-0.1,0-0.2,0-0.3c0-0.3-0.1-0.4-0.4-0.4c-0.3,0-0.4,0.2-0.4,0.4v0.3H143.8z M143,29.8c0,0.8,0,1.2,0.5,1.2
			c0.4,0,0.7-0.3,0.8-0.7h0.1c-0.1,0.7-0.7,0.8-0.9,0.8c-0.6,0-1.1-0.5-1.1-1.2c0-0.7,0.5-1.1,1.1-1.1c0.3,0,0.6,0.1,0.8,0.4
			c0.2,0.2,0.2,0.4,0.2,0.6H143z"/>
		<path d="M147.6,29.1h0.3c0.3,0,0.6,0,0.6-0.7h0.1v1.6h-0.1c0-0.6-0.3-0.7-0.6-0.7h-0.3v1.7h0.8c0.7,0,1.1-0.2,1.2-1.1h0.1l0,1.2
			h-3.3v-0.1h0.6v-3.4h-0.6v-0.1h3.2l0.1,1h-0.1c-0.1-0.6-0.4-0.8-1.1-0.8h-0.8V29.1z"/>
		<path d="M151.8,29.5h-0.1c-0.1-0.3-0.3-0.5-0.6-0.5c-0.3,0-0.5,0.2-0.5,0.4c0,0.2,0.2,0.3,0.6,0.3c0.2,0,0.8,0.1,0.8,0.7
			c0,0.4-0.3,0.7-0.8,0.7c-0.3,0-0.5-0.1-0.6-0.3l-0.2,0.2h-0.1v-0.8h0.1c0,0.1,0.1,0.3,0.2,0.5c0.1,0.2,0.3,0.3,0.6,0.3
			c0.3,0,0.6-0.2,0.6-0.5c0-0.2-0.2-0.3-0.7-0.4c-0.2,0-0.8-0.1-0.8-0.7c0-0.4,0.3-0.7,0.7-0.7c0.3,0,0.4,0.1,0.5,0.2
			c0.1-0.1,0.1-0.1,0.1-0.2h0.1V29.5z"/>
		<path d="M153.4,29.3c-0.1,0.2-0.1,0.4-0.1,0.7c0,0.3,0,0.4,0.1,0.6c0.1,0.2,0.3,0.4,0.6,0.4c0.4,0,0.4-0.3,0.4-1
			c0-0.2,0-0.6-0.1-0.8c0-0.1-0.2-0.2-0.3-0.2C153.6,28.9,153.5,29.2,153.4,29.3 M153.3,32.3h0.5v0.2h-1.4v-0.2h0.4V29h-0.4v-0.1
			h0.3c0.3,0,0.5,0,0.6,0v0.4h0c0.1-0.2,0.3-0.5,0.7-0.5c0.5,0,1,0.5,1,1.1c0,0.7-0.5,1.2-1.1,1.2c-0.4,0-0.6-0.3-0.7-0.4h0V32.3z"
			/>
		<path d="M157,29.9c-0.8,0-0.8,0.3-0.8,0.5c0,0.3,0.2,0.4,0.3,0.4c0.2,0,0.4-0.2,0.5-0.3c0.1-0.1,0.1-0.2,0.1-0.3V29.9z M157,29.5
			c0-0.4,0-0.6-0.4-0.6c-0.2,0-0.5,0-0.5,0.2c0,0,0,0.1,0,0.1c0,0.1,0.1,0.1,0.1,0.2c0,0.2-0.2,0.2-0.2,0.2c-0.2,0-0.3-0.2-0.3-0.3
			c0-0.3,0.3-0.5,1-0.5c0.8,0,0.8,0.3,0.8,0.7v1c0,0.2,0,0.3,0.1,0.3c0.1,0,0.2-0.1,0.2-0.1h0.1c-0.1,0.4-0.4,0.4-0.5,0.4
			c-0.4,0-0.4-0.3-0.5-0.4c-0.1,0.1-0.3,0.4-0.8,0.4c-0.4,0-0.6-0.3-0.6-0.5c0-0.7,1-0.7,1.4-0.8V29.5z"/>
		<path d="M160.5,27.6c0,0.5-0.3,0.6-0.5,0.6c-0.1,0-0.2,0-0.5-0.1c-0.2-0.1-0.3-0.1-0.4-0.1c-0.2,0-0.2,0.2-0.3,0.2h-0.1
			c0-0.5,0.3-0.6,0.5-0.6c0.1,0,0.2,0,0.4,0.1c0.2,0.1,0.3,0.1,0.4,0.1c0.2,0,0.2-0.1,0.3-0.2H160.5z M158.6,29h-0.4v-0.1h0.3
			c0.2,0,0.5,0,0.7,0v0.5h0c0.1-0.2,0.3-0.6,0.8-0.6c0.3,0,0.5,0.2,0.6,0.3c0.1,0.2,0.1,0.5,0.1,0.6v1.2h0.4V31h-1.4v-0.1h0.4v-1.4
			c0-0.4,0-0.6-0.3-0.6c-0.1,0-0.3,0.1-0.5,0.2c-0.1,0.2-0.2,0.4-0.2,0.8v0.9h0.4V31h-1.3v-0.1h0.4V29z"/>
		<path d="M162.9,29.9c-0.8,0-0.8,0.3-0.8,0.5c0,0.3,0.2,0.4,0.3,0.4c0.2,0,0.4-0.2,0.5-0.3c0.1-0.1,0.1-0.2,0.1-0.3V29.9z
			 M162.9,29.5c0-0.4,0-0.6-0.4-0.6c-0.2,0-0.5,0-0.5,0.2c0,0,0,0.1,0,0.1c0,0.1,0.1,0.1,0.1,0.2c0,0.2-0.2,0.2-0.2,0.2
			c-0.2,0-0.3-0.2-0.3-0.3c0-0.3,0.3-0.5,1-0.5c0.8,0,0.8,0.3,0.8,0.7v1c0,0.2,0,0.3,0.1,0.3c0.1,0,0.2-0.1,0.2-0.1h0.1
			c-0.1,0.4-0.4,0.4-0.5,0.4c-0.4,0-0.4-0.3-0.5-0.4c-0.1,0.1-0.3,0.4-0.8,0.4c-0.4,0-0.6-0.3-0.6-0.5c0-0.7,1-0.7,1.4-0.8V29.5z"/>
		<path class="st2" d="M93.2,21.9c-0.7,2.1-2.5,3.4-4.8,3.4c-3,0-6.1-2.3-6.1-5.4c0-3.3,3-5.7,6.2-5.7c3,0,4.3,1.9,4.3,2.9
			c0,1.1-0.8,1.8-1.9,1.8c-1,0-1.8-0.8-1.8-1.8c0-0.4,0.2-0.9,0.5-1c0.2-0.1,0.4-0.3,0.4-0.6c0-0.5-1-0.6-1.4-0.6
			c-1.2,0-2,0.3-2,2.9v3.4c0,2.7,0.4,3.4,2.1,3.4c2.1,0,3.2-1.2,4-3.1L93.2,21.9z"/>
		<path class="st4" d="M101.6,21c0,0.5,0,1-0.2,1.4c-0.3,0.9-1,1.6-2,1.6c-1.3,0-1.8-0.9-1.8-2.1c0-2.2,2.3-2.4,3.9-2.4V21z
			 M102.5,9.1c0.3-0.2,0.8-0.7,0.8-1c0-0.5-0.5-1-1.1-1c-0.6,0-1.2,0.7-1.7,1.2l-3.4,3.5h1.3L102.5,9.1z M101.6,19
			c-2.4-0.1-6.8,0.5-6.8,3.7c0,1.7,1.2,2.6,2.8,2.6c1.5,0,3-0.7,4-1.9c0.2,1.2,0.9,1.9,2.1,1.9c1.1,0,1.9-0.6,2.6-1.4l-0.3-0.4
			c-0.2,0.2-0.6,0.6-0.9,0.6c-0.3,0-0.7-0.2-0.7-0.5v-7.1c0-0.8-0.2-1.3-1-1.6c-1.1-0.5-2.3-0.7-3.5-0.7c-1.7,0-4.3,0.7-4.3,2.7
			c0,0.9,0.7,1.3,1.4,1.3c0.6,0,1.3-0.5,1.3-1.2c0-0.5-0.2-1.1-0.4-1.3c-0.4-0.5,0.9-1,1.9-1c0.5,0,1.8,0.3,1.8,1V19z"/>
		<path class="st4" d="M111.6,16.8L111.6,16.8c0.7-1.6,2-2.6,3.8-2.6c1.5,0,2.6,0.8,3.1,2.2c0.8-1.3,2-2.2,3.5-2.2
			c3.6,0,3.3,2.2,3.3,4.9v5.2h1.7v0.7h-6v-0.7h1.4v-7.1c0-0.7,0.1-2-1.1-2c-2,0-2.8,2.3-2.8,3.9v5.2h1.5v0.7h-5.8v-0.7h1.4v-6.4
			c0-1.2,0.3-2.7-1.3-2.7c-1.3,0-2.7,2-2.7,4v5.1h1.5v0.7H107v-0.7h1.8V15h-1.9v-0.7c1.4,0.1,3-0.1,4.7-0.1V16.8z"/>
		<path class="st4" d="M135.1,21c0,0.5,0,1-0.2,1.4c-0.3,0.9-1,1.6-2,1.6c-1.3,0-1.8-0.9-1.8-2.1c0-2.2,2.3-2.4,3.9-2.4V21z
			 M135.1,19c-2.4-0.1-6.8,0.5-6.8,3.7c0,1.7,1.2,2.6,2.8,2.6c1.5,0,3-0.7,4-1.9c0.2,1.2,0.9,1.9,2.1,1.9c1.1,0,1.9-0.6,2.6-1.4
			l-0.3-0.4c-0.2,0.2-0.6,0.6-0.9,0.6c-0.3,0-0.7-0.2-0.7-0.5v-7.1c0-0.8-0.2-1.3-1-1.6c-1.1-0.5-2.3-0.7-3.5-0.7
			c-1.7,0-4.3,0.7-4.3,2.7c0,0.9,0.6,1.3,1.4,1.3c0.6,0,1.3-0.5,1.3-1.2c0-0.5-0.2-1.1-0.4-1.3c-0.4-0.5,0.9-1,1.9-1
			c0.5,0,1.8,0.3,1.8,1V19z"/>
		<path class="st4" d="M145.6,17.2c0.9-1.5,1.8-3,3.8-3c1.1,0,2.2,0.5,2.2,1.7c0,1-0.7,1.5-1.7,1.5c-0.7,0-1.3-0.6-1.3-1.2
			c0-0.1,0-0.3,0.1-0.4c0.1-0.4,0.1-0.6-0.2-0.6c-0.5,0-0.8,0.3-1.1,0.6c-1,1-1.7,2.5-1.7,5.9v2.5h2.4v0.7h-7v-0.7h1.6V15h-1.8v-0.7
			c1.4,0.1,3.1-0.1,4.7-0.1V17.2z"/>
		<path class="st4" d="M159.1,21c0,0.5,0,1-0.2,1.4c-0.3,0.9-1,1.6-2,1.6c-1.3,0-1.8-0.9-1.8-2.1c0-2.2,2.3-2.4,3.9-2.4V21z
			 M159.1,19c-2.4-0.1-6.8,0.5-6.8,3.7c0,1.7,1.2,2.6,2.8,2.6c1.5,0,3-0.7,4-1.9c0.2,1.2,0.9,1.9,2.1,1.9c1.1,0,1.9-0.6,2.6-1.4
			l-0.3-0.4c-0.2,0.2-0.6,0.6-1,0.6c-0.3,0-0.7-0.2-0.7-0.5v-7.1c0-0.8-0.2-1.3-1-1.6c-1.1-0.5-2.3-0.7-3.5-0.7
			c-1.7,0-4.3,0.7-4.3,2.7c0,0.9,0.7,1.3,1.4,1.3c0.6,0,1.3-0.5,1.3-1.2c0-0.5-0.2-1.1-0.4-1.3c-0.4-0.5,0.9-1,1.9-1
			c0.5,0,1.8,0.3,1.8,1V19z"/>
		<path class="st4" d="M92.4,9.1l-0.1-0.1C91,8.6,89.5,8.3,88,8.3c-6.6,0-11.8,5.1-11.8,11.5c0,6.2,5.2,11.3,11.6,11.3
			c1.5,0,3.1-0.3,4.5-0.9l0.1,0l0-0.2l0-2.9l0-0.4l-0.4,0.2c-1.4,0.8-2.9,1.3-4.3,1.3c-4.6,0-8.3-3.8-8.3-8.5c0-4.7,3.8-8.5,8.4-8.5
			c1.6,0,2.9,0.4,4.3,1.1l0.4,0.2L92.4,9.1z"/>
	</g>
</g>
</svg>
